<?xml version="1.0" standalone="no"?>
<!DOCTYPE svg PUBLIC "-//W3C//DTD SVG 20010904//EN"
 "http://www.w3.org/TR/2001/REC-SVG-20010904/DTD/svg10.dtd">
<svg version="1.0" xmlns="http://www.w3.org/2000/svg"
 width="40.000000pt" height="40.000000pt" viewBox="0 0 40.000000 40.000000"
 preserveAspectRatio="xMidYMid meet">

<g transform="translate(0.000000,40.000000) scale(0.100000,-0.100000)"
fill="#000000" stroke="none">
<path d="M125 381 c-72 -33 -125 -111 -125 -183 1 -97 103 -198 200 -198 98 0
200 102 200 200 0 73 -58 153 -132 184 -49 21 -94 20 -143 -3z m121 -116 c4
-8 17 -15 31 -15 23 0 24 -2 21 -62 l-3 -63 -95 0 -95 0 -3 63 c-3 60 -2 62
21 62 14 0 27 7 31 15 8 21 84 21 92 0z"/>
<path d="M175 224 c-20 -20 -16 -53 8 -68 39 -24 79 44 41 71 -23 17 -29 16
-49 -3z"/>
</g>
</svg>
