<?xml version="1.0" standalone="no"?>
<!DOCTYPE svg PUBLIC "-//W3C//DTD SVG 20010904//EN"
 "http://www.w3.org/TR/2001/REC-SVG-20010904/DTD/svg10.dtd">
<svg version="1.0" xmlns="http://www.w3.org/2000/svg"
 width="40.000000pt" height="40.000000pt" viewBox="0 0 40.000000 40.000000"
 preserveAspectRatio="xMidYMid meet">

<g transform="translate(0.000000,40.000000) scale(0.100000,-0.100000)"
fill="#000000" stroke="none">
<path d="M45 287 c-58 -58 -58 -116 0 -174 28 -28 40 -33 79 -33 62 0 105 37
113 98 l6 42 -62 0 c-59 0 -62 -1 -59 -22 2 -17 11 -24 35 -28 35 -5 34 -19
-5 -39 -19 -10 -30 -10 -53 0 -52 21 -66 82 -28 120 17 17 30 20 65 16 31 -3
47 0 56 10 18 22 -16 43 -70 43 -37 0 -50 -6 -77 -33z"/>
<path d="M310 245 c0 -20 -5 -25 -25 -25 -16 0 -25 -6 -25 -15 0 -9 9 -15 25
-15 20 0 25 -5 25 -25 0 -18 5 -25 20 -25 15 0 20 7 20 25 0 20 5 25 25 25 16
0 25 6 25 15 0 9 -9 15 -25 15 -20 0 -25 5 -25 25 0 18 -5 25 -20 25 -15 0
-20 -7 -20 -25z"/>
</g>
</svg>
