<?xml version="1.0" standalone="no"?>
<!DOCTYPE svg PUBLIC "-//W3C//DTD SVG 20010904//EN"
 "http://www.w3.org/TR/2001/REC-SVG-20010904/DTD/svg10.dtd">
<svg version="1.0" xmlns="http://www.w3.org/2000/svg"
 width="426.000000pt" height="426.000000pt" viewBox="0 0 426.000000 426.000000"
 preserveAspectRatio="xMidYMid meet">

<g transform="translate(0.000000,426.000000) scale(0.100000,-0.100000)"
fill="#000000" stroke="none">
<path d="M0 3576 l0 -685 32 11 c55 18 61 28 43 77 -8 24 -15 53 -15 65 0 34
35 82 85 116 l47 33 -7 151 c-5 125 -3 176 14 293 40 283 84 391 242 596 l21
27 -231 0 -231 0 0 -684z"/>
<path d="M1543 4253 c9 -2 23 -2 30 0 6 3 -1 5 -18 5 -16 0 -22 -2 -12 -5z"/>
<path d="M1673 4230 c-7 -20 -8 -32 -1 -36 6 -4 6 -10 -1 -17 -14 -14 -14
-104 -1 -112 6 -3 10 -19 10 -36 0 -36 4 -36 51 -3 47 32 73 29 77 -11 2 -17
10 -34 18 -38 8 -4 14 -12 14 -17 0 -4 18 -27 40 -50 23 -24 38 -45 36 -48 -3
-3 -1 -11 6 -19 6 -7 12 -55 13 -106 3 -122 1 -117 35 -117 23 0 30 -4 30 -20
0 -31 28 -24 119 30 46 28 86 48 89 46 3 -3 -7 -29 -22 -58 -23 -44 -29 -70
-33 -150 -4 -72 -2 -102 7 -113 10 -12 15 -13 21 -3 4 7 10 10 13 7 13 -13
-73 -82 -122 -98 -29 -10 -63 -27 -75 -38 -12 -11 -50 -37 -85 -57 -69 -42
-87 -65 -79 -106 7 -32 -19 -60 -102 -111 -44 -26 -58 -43 -81 -92 -40 -83
-56 -178 -41 -246 6 -29 9 -57 6 -62 -6 -9 -37 6 -69 34 -15 13 -22 15 -24 5
-2 -7 -8 -23 -14 -35 -6 -13 -8 -62 -5 -125 2 -56 0 -134 -5 -173 -17 -120
-16 -116 -46 -113 -26 3 -27 1 -30 -50 -3 -59 2 -56 -68 -36 -18 5 -22 0 -28
-35 -8 -49 -22 -52 -66 -11 -44 41 -60 39 -60 -8 0 -50 -27 -77 -68 -69 -25 5
-29 3 -28 -16 1 -19 8 -22 44 -25 38 -3 44 -7 62 -41 12 -24 29 -41 44 -45 13
-3 33 -22 45 -41 11 -19 27 -35 35 -35 21 0 39 -37 32 -66 -9 -34 -59 -34 -82
1 -9 14 -22 25 -30 25 -7 0 -28 16 -47 35 -28 29 -41 35 -74 35 -23 0 -46 6
-52 14 -7 8 -21 12 -31 9 -16 -4 -18 -11 -13 -31 3 -15 10 -31 14 -37 30 -39
313 -345 319 -345 5 0 28 -18 51 -40 24 -22 49 -40 57 -40 10 0 10 -5 -2 -22
-21 -29 -20 -38 2 -38 10 0 23 13 31 31 7 17 21 33 30 36 9 2 32 11 52 20 33
14 43 13 128 -8 50 -12 91 -27 91 -33 0 -15 -118 -116 -135 -116 -7 0 -18 -12
-23 -27 -6 -16 -38 -57 -71 -92 -34 -35 -61 -67 -61 -71 0 -5 -16 -17 -35 -29
-24 -14 -37 -30 -41 -50 -4 -16 -19 -42 -35 -57 -16 -15 -29 -35 -29 -44 0 -9
-13 -29 -30 -45 -16 -16 -30 -36 -30 -45 0 -18 -32 -51 -67 -69 -18 -9 -23
-20 -23 -51 0 -22 -7 -45 -16 -55 -25 -24 -74 -126 -74 -151 0 -14 -12 -31
-30 -44 -16 -12 -30 -30 -30 -40 0 -10 -11 -27 -25 -38 -14 -11 -30 -34 -36
-50 -7 -20 -20 -32 -42 -39 -29 -8 -32 -12 -32 -51 0 -32 -5 -45 -22 -57 -13
-9 -23 -25 -23 -36 0 -17 6 -20 37 -17 32 3 39 7 47 35 6 24 17 35 43 44 31
10 33 13 27 44 -5 26 -1 41 15 61 12 15 21 32 21 40 0 7 11 26 25 42 14 17 25
39 25 50 0 29 23 43 83 49 l53 5 10 -33 c8 -27 15 -34 34 -34 20 0 25 5 26 25
1 44 4 49 27 64 33 22 74 27 88 10 7 -9 29 -14 63 -13 l51 1 -61 20 c-77 24
-112 56 -133 120 -18 55 -4 115 44 188 46 69 247 275 292 299 17 8 83 17 177
22 150 8 151 8 206 -18 30 -14 58 -25 63 -25 4 1 7 -3 7 -8 0 -6 10 -10 23
-10 23 -1 67 -31 67 -48 0 -5 7 -15 15 -22 8 -7 15 -20 15 -29 0 -9 11 -36 24
-61 13 -25 26 -66 30 -93 8 -51 25 -60 66 -35 31 20 74 -1 78 -37 4 -44 -19
-69 -64 -70 -33 0 -38 -4 -45 -28 -11 -42 -29 -59 -55 -53 -14 4 -36 -2 -56
-14 -44 -26 -70 -25 -106 5 -26 22 -34 23 -60 14 l-31 -10 15 -42 c18 -51 7
-85 -35 -110 -36 -21 -36 -21 -60 5 -24 25 -45 14 -54 -31 -4 -18 -18 -36 -40
-49 -49 -29 -78 -37 -75 -20 4 16 -90 14 -106 -2 -17 -17 -22 -11 -23 30 -3
64 -22 94 -65 101 -46 7 -52 3 -33 -25 20 -27 19 -71 -1 -91 -9 -8 -31 -22
-50 -30 -21 -9 -38 -25 -45 -42 -11 -30 -38 -84 -75 -150 l-23 -43 29 0 c34 0
71 33 95 85 19 39 97 115 119 115 8 0 22 -8 32 -17 9 -10 37 -20 62 -23 59 -7
72 -27 44 -68 -12 -16 -22 -39 -22 -49 0 -10 -5 -24 -12 -31 -9 -9 -6 -12 15
-12 15 0 27 4 27 10 0 5 9 19 20 30 11 11 26 35 34 55 8 19 22 35 30 35 27 0
28 -21 2 -49 -15 -15 -26 -39 -26 -54 0 -25 3 -27 47 -27 29 0 53 6 65 17 17
15 19 15 36 0 10 -10 26 -17 36 -17 26 0 57 35 65 72 5 26 12 34 34 36 21 3
27 -1 27 -16 0 -10 -9 -27 -20 -37 -24 -22 -26 -43 -5 -52 21 -8 55 25 55 53
0 23 33 54 57 54 7 0 17 -9 23 -21 9 -16 8 -26 -4 -44 -25 -37 -20 -45 29 -45
45 0 45 0 45 34 0 25 7 39 22 50 33 24 55 19 75 -15 14 -23 24 -29 41 -26 16
3 22 0 22 -14 0 -11 -7 -19 -15 -19 -8 0 -15 5 -15 10 0 14 -13 12 -36 -5 -17
-13 -14 -14 45 -15 51 0 62 3 57 15 -5 15 13 38 44 55 24 13 50 -11 50 -46 l0
-24 815 0 815 0 0 853 0 853 -82 53 c-94 60 -91 71 13 63 l69 -5 0 379 c0 209
-3 389 -6 401 -4 14 -11 20 -18 16 -6 -4 -5 1 2 10 8 9 10 22 6 29 -5 7 -9 24
-10 38 -1 14 0 17 3 7 19 -69 23 68 23 779 l0 784 -1288 0 -1288 0 -11 -30z
m1167 -622 c26 -31 28 -32 45 -14 40 39 112 48 135 16 8 -11 20 -20 28 -20 9
0 11 -7 6 -22 -6 -23 -6 -23 21 2 21 20 17 10 -21 -52 -26 -43 -51 -78 -56
-78 -9 0 -5 31 8 65 l7 20 -23 -20 -24 -20 24 35 24 35 -26 -23 -26 -24 -11
21 c-7 12 -20 21 -31 21 -17 0 -16 -5 12 -50 17 -28 28 -53 25 -57 -4 -3 -7
-1 -7 5 0 7 -5 12 -11 12 -10 0 -5 -62 7 -82 10 -16 6 -85 -6 -108 -6 -12 -36
-37 -66 -56 -30 -20 -58 -42 -61 -50 -8 -21 -22 -17 -29 10 -6 27 13 72 45
100 11 10 18 22 16 26 -3 4 2 25 11 46 16 38 16 39 -2 24 -12 -9 -38 -15 -66
-14 -33 0 -48 -3 -48 -12 0 -7 -13 -15 -30 -19 -16 -3 -32 -15 -35 -25 -3 -10
-12 -21 -20 -24 -16 -6 -20 -37 -6 -52 14 -15 40 -104 35 -118 -7 -18 31 -48
58 -44 16 2 24 11 26 28 4 35 62 64 96 49 19 -9 31 -8 57 5 24 12 46 15 79 10
42 -6 44 -5 25 10 -19 14 -17 15 40 17 33 1 67 0 74 -1 12 -1 13 1 3 13 -7 8
-23 13 -35 11 -19 -4 -19 -3 -3 4 22 10 87 -8 79 -22 -4 -6 2 -6 13 -2 15 6
17 5 7 -5 -19 -19 -17 -24 27 -53 41 -27 71 -77 51 -84 -5 -2 -8 -9 -5 -16 3
-8 -2 -21 -11 -30 -9 -9 -13 -16 -8 -16 5 0 14 5 20 11 9 9 17 0 31 -32 11
-24 23 -56 26 -71 7 -30 -9 -47 -27 -29 -6 6 -22 11 -36 11 -19 0 -22 -3 -13
-12 7 -7 12 -19 11 -27 0 -11 -2 -12 -6 -3 -8 19 -101 64 -146 69 -26 3 -37 1
-32 -6 8 -14 -10 -14 -34 -1 -19 10 -79 -6 -93 -25 -9 -12 -10 -31 -1 -22 3 4
12 2 19 -4 15 -12 54 -3 54 12 0 6 4 8 9 5 8 -5 45 3 85 20 14 5 17 4 12 -4
-5 -8 0 -12 13 -12 20 0 91 -54 91 -69 0 -4 -22 -6 -49 -4 -47 2 -50 1 -56
-26 -5 -23 -13 -30 -43 -35 -20 -3 -52 -6 -69 -6 -40 0 -45 -25 -5 -26 15 -1
59 -9 99 -17 89 -20 123 -11 155 41 34 56 38 58 121 65 88 8 130 -7 192 -66
19 -18 44 -39 56 -47 11 -9 20 -23 18 -32 -4 -15 -15 -13 -96 15 -74 25 -93
35 -93 50 0 16 -3 17 -15 7 -10 -9 -15 -9 -15 -1 0 6 -7 11 -15 11 -10 0 -15
-10 -15 -34 0 -19 -7 -41 -15 -50 -8 -8 -15 -19 -15 -24 0 -12 -40 -48 -40
-36 0 5 -7 1 -15 -10 -8 -11 -20 -16 -30 -12 -11 4 -15 2 -12 -6 4 -14 -18
-75 -36 -97 -6 -7 -12 -47 -13 -88 -1 -63 1 -73 15 -71 10 2 15 12 13 26 -2
12 2 22 7 22 6 0 11 8 12 18 0 10 3 12 6 5 2 -7 9 -13 14 -13 6 0 7 5 4 10 -5
9 48 15 103 13 8 -1 11 5 8 14 -7 17 27 79 47 87 7 2 4 5 -5 5 -14 1 -18 10
-18 35 0 37 21 62 45 53 8 -4 19 1 24 11 8 15 15 15 58 4 74 -20 78 -28 60
-109 -9 -37 -19 -91 -22 -120 -7 -57 -24 -77 -71 -87 -17 -4 -44 -21 -60 -37
-42 -45 -115 -94 -107 -73 5 13 3 15 -7 9 -10 -6 -12 -4 -6 11 4 10 10 29 12
42 4 21 1 20 -36 -14 -22 -20 -40 -43 -40 -51 0 -7 -8 -13 -18 -13 -9 0 -23
-9 -30 -20 -7 -11 -8 -20 -3 -20 5 0 -2 -13 -17 -30 -14 -16 -27 -35 -29 -42
-1 -7 -6 -31 -11 -53 -5 -22 -16 -55 -26 -73 -19 -38 -24 -121 -9 -174 6 -21
8 -36 4 -34 -8 5 -5 -299 3 -313 4 -5 2 -12 -4 -16 -12 -7 -1 -67 14 -77 7 -5
5 -8 -4 -8 -9 0 -21 5 -27 11 -18 18 -46 3 -38 -21 10 -30 -6 -49 -32 -39 -29
11 -30 33 -2 45 20 9 20 10 -5 24 -22 11 -33 12 -63 1 -29 -11 -37 -11 -44 0
-6 11 -12 10 -27 -5 -14 -12 -22 -14 -27 -6 -5 8 -12 6 -25 -5 -10 -9 -21 -12
-24 -7 -3 6 0 12 8 15 8 3 15 23 18 45 2 22 0 38 -4 36 -5 -3 -8 0 -8 5 0 6 4
11 9 11 5 0 9 26 8 58 0 31 5 95 11 142 7 46 12 98 11 115 -1 29 -1 29 -8 5
l-7 -25 -17 32 c-9 18 -17 40 -17 49 0 10 -7 46 -16 82 -9 35 -14 65 -12 68 3
2 19 -3 36 -12 18 -8 36 -13 42 -9 21 13 9 23 -35 28 -25 2 -55 13 -65 22 -21
19 -23 16 -20 -27 2 -29 -36 -92 -49 -83 -10 6 -2 55 9 55 4 0 10 20 12 46 3
37 -1 49 -20 67 l-24 22 5 -55 c5 -56 -15 -123 -45 -148 -19 -16 -42 2 -35 27
6 26 -9 37 -29 20 -10 -9 -18 -9 -26 -1 -7 7 -2 15 18 26 21 12 24 16 9 14
-18 -3 -20 4 -23 60 -2 45 3 78 18 118 l20 56 -31 116 c-55 205 -61 236 -55
279 9 67 22 80 86 86 51 6 150 41 150 53 0 3 -4 14 -10 24 -10 19 -40 17 -88
-9 -21 -11 -32 1 -32 39 0 20 49 32 74 18 20 -11 30 9 27 54 -4 63 9 70 294
155 33 10 66 18 74 18 23 0 37 31 23 48 -12 15 -47 12 -95 -8 -9 -4 -24 -2
-31 4 -10 8 -16 9 -21 1 -3 -6 -11 -8 -16 -4 -5 3 -16 0 -24 -6 -8 -6 -19 -9
-25 -5 -5 3 -10 2 -10 -4 0 -5 -15 -13 -32 -16 -18 -4 -38 -12 -45 -17 -7 -5
-34 -9 -60 -9 -26 1 -56 1 -67 2 -10 0 -27 -8 -37 -17 -14 -12 -50 -20 -124
-27 -98 -9 -134 -6 -109 11 5 4 22 27 37 52 15 25 37 57 48 71 18 23 19 31 10
65 -19 69 -13 143 18 220 29 71 47 145 42 177 -1 9 3 17 8 17 6 0 28 18 48 41
27 30 43 39 59 36 12 -2 32 4 45 14 35 27 59 23 89 -13z m290 -111 c0 -2 -12
-14 -27 -28 l-28 -24 24 28 c23 25 31 32 31 24z m360 -27 c0 -5 -5 -10 -11
-10 -5 0 -7 5 -4 10 3 6 8 10 11 10 2 0 4 -4 4 -10z m-280 -50 c-6 -11 -16
-20 -22 -20 -6 0 -3 9 7 20 10 11 20 20 22 20 2 0 -1 -9 -7 -20z m201 -21
c-34 -28 -47 -23 -14 5 15 13 30 22 33 19 3 -2 -6 -13 -19 -24z m79 -208 c-5
-11 -15 -23 -21 -27 -6 -3 -3 5 6 20 20 30 30 35 15 7z m125 -111 c-3 -5 -13
-10 -21 -10 -8 0 -12 5 -9 10 3 6 13 10 21 10 8 0 12 -4 9 -10z m-389 -348
c-6 -5 -56 21 -56 29 0 5 13 0 29 -9 16 -9 28 -18 27 -20z m394 -22 c0 -5 -2
-10 -4 -10 -3 0 -8 5 -11 10 -3 6 -1 10 4 10 6 0 11 -4 11 -10z m-168 -132
c-12 -12 -35 -1 -27 12 3 5 13 6 21 3 10 -4 12 -9 6 -15z m-1605 -170 c-9 -45
-18 -110 -22 -143 l-7 -60 -19 24 c-10 13 -19 36 -19 51 0 15 -7 33 -15 40 -8
7 -12 17 -9 24 4 6 -7 -4 -24 -21 -17 -18 -37 -34 -44 -34 -56 -5 -84 22 -93
92 -6 41 -4 50 19 72 l26 26 35 -23 c19 -13 44 -34 56 -48 l21 -23 39 36 c21
20 39 43 39 52 0 14 20 29 28 22 2 -2 -3 -41 -11 -87z m1763 -187 c-12 -23
-29 -35 -37 -27 -7 7 26 46 39 46 5 0 4 -9 -2 -19z m-90 5 c0 -2 -8 -10 -17
-17 -16 -13 -17 -12 -4 4 13 16 21 21 21 13z m198 -166 c13 0 15 -6 12 -69 -2
-55 -20 -77 -36 -46 -6 13 -9 34 -7 48 3 14 0 41 -6 60 -6 19 -14 44 -16 56
-2 13 -7 32 -10 44 -2 12 7 -4 23 -35 15 -32 33 -58 40 -58z m271 -19 c10 -6
12 -20 8 -46 -8 -46 -23 -65 -53 -65 -19 0 -24 7 -30 35 -11 59 32 103 75 76z
m-667 -286 c7 3 3 -2 -9 -11 -13 -9 -23 -24 -23 -33 -1 -9 -21 -38 -45 -66
l-45 -50 0 31 c0 48 19 90 46 103 13 6 27 18 30 26 5 12 10 13 20 4 7 -6 19
-8 26 -4z m-1908 -111 c20 -8 21 -48 1 -64 -32 -26 -74 16 -53 54 9 17 26 20
52 10z m44 -83 c8 -5 11 -17 7 -33 -5 -20 -2 -26 15 -31 31 -8 22 -41 -13 -45
-22 -3 -27 1 -27 18 0 12 -10 30 -21 39 -18 15 -20 21 -10 39 12 23 27 27 49
13z m1399 -248 c-3 -10 -5 -4 -5 12 0 17 2 24 5 18 2 -7 2 -21 0 -30z m130
-41 c10 -7 10 -12 -1 -27 -17 -24 -46 -14 -39 14 6 22 19 26 40 13z m-67 -21
c0 -24 -11 -32 -28 -22 -16 10 -5 41 14 41 8 0 14 -9 14 -19z m244 10 c4 -5 3
-19 -2 -30 -7 -18 -10 -20 -25 -8 -12 8 -16 19 -11 30 7 18 29 23 38 8z m46
-56 c-6 -7 -7 -15 -4 -18 10 -10 11 -121 1 -128 -5 -4 -3 -16 4 -27 10 -16 11
-24 2 -33 -24 -24 -31 3 -27 118 2 64 7 126 11 137 6 19 7 18 14 -8 5 -17 4
-35 -1 -41z m-340 47 c0 -5 -7 -17 -15 -28 -14 -19 -14 -19 -15 2 0 11 3 24 7
27 9 10 23 9 23 -1z m-440 -12 c0 -5 -5 -10 -11 -10 -5 0 -7 5 -4 10 3 6 8 10
11 10 2 0 4 -4 4 -10z m380 -25 c0 -8 -4 -15 -10 -15 -5 0 -7 7 -4 15 4 8 8
15 10 15 2 0 4 -7 4 -15z m169 -4 c19 -12 6 -41 -19 -41 -13 0 -20 7 -20 18 0
31 14 39 39 23z m107 -6 c3 -8 2 -28 -4 -43 -5 -16 -6 -35 -2 -42 12 -19 1
-40 -21 -40 -31 0 -36 30 -8 51 13 10 18 19 11 19 -7 0 -10 5 -7 10 3 6 1 10
-4 10 -15 0 -14 37 2 43 21 9 27 7 33 -8z m-606 -10 c0 -8 -7 -15 -15 -15 -16
0 -20 12 -8 23 11 12 23 8 23 -8z m433 9 c8 -9 -11 -44 -23 -44 -6 0 -10 8
-10 18 0 27 18 41 33 26z m243 -67 c-2 -54 -4 -62 -21 -62 -18 0 -20 6 -16 60
4 68 6 76 25 69 9 -4 13 -23 12 -67z m-296 54 c0 -17 -12 -41 -21 -41 -10 0
-12 33 -2 43 9 10 23 9 23 -2z m-64 -37 c-4 -9 -9 -15 -11 -12 -3 3 -3 13 1
22 4 9 9 15 11 12 3 -3 3 -13 -1 -22z m-276 -10 c0 -9 -5 -14 -12 -12 -18 6
-21 28 -4 28 9 0 16 -7 16 -16z m450 -19 c15 -18 6 -44 -14 -41 -23 3 -29 12
-21 35 8 25 18 27 35 6z m-65 -5 c7 -12 -12 -40 -26 -40 -10 0 -12 34 -2 43 9
10 21 9 28 -3z m-57 -22 c-4 -27 -28 -36 -28 -10 0 20 8 32 22 32 5 0 8 -10 6
-22z m-476 -10 c-7 -7 -12 -8 -12 -2 0 14 12 26 19 19 2 -3 -1 -11 -7 -17z
m-72 -5 c0 -5 -5 -15 -10 -23 -7 -11 -12 -12 -21 -3 -6 6 -8 16 -5 22 8 12 36
15 36 4z m483 -8 c-3 -9 -8 -14 -10 -11 -3 3 -2 9 2 15 9 16 15 13 8 -4z m192
-30 c0 -13 -8 -21 -22 -23 -17 -3 -23 2 -23 16 0 10 3 22 7 26 13 13 38 1 38
-19z m282 -7 c-3 -7 -5 -2 -5 12 0 14 2 19 5 13 2 -7 2 -19 0 -25z m-896 -11
c-8 -8 -11 -7 -11 4 0 20 13 34 18 19 3 -7 -1 -17 -7 -23z m207 13 c8 -14 23
-20 47 -20 l35 0 -5 -52 c-2 -28 -10 -55 -17 -59 -18 -12 -48 -11 -48 1 0 6
-11 10 -25 10 -16 0 -25 6 -25 15 0 8 -4 15 -10 15 -16 0 -12 57 5 74 8 8 15
19 15 25 0 17 14 13 28 -9z m263 -23 c-7 -7 -12 -5 -17 7 -4 11 -1 21 7 27 17
11 26 -18 10 -34z m69 23 c0 -11 -7 -20 -15 -20 -8 0 -15 9 -15 20 0 11 7 20
15 20 8 0 15 -9 15 -20z m180 0 c0 -15 -7 -20 -25 -20 -18 0 -25 5 -25 20 0
15 7 20 25 20 18 0 25 -5 25 -20z m70 -5 c0 -25 -23 -35 -35 -15 -10 16 2 40
20 40 9 0 15 -9 15 -25z m-376 -20 c-4 -8 -8 -15 -10 -15 -2 0 -4 7 -4 15 0 8
4 15 10 15 5 0 7 -7 4 -15z m496 -32 c0 -7 -4 -13 -10 -13 -5 0 -10 12 -10 28
0 21 2 24 10 12 5 -8 10 -21 10 -27z m-370 3 c0 -8 -5 -18 -11 -22 -14 -8 -33
11 -25 25 10 16 36 13 36 -3z m75 -6 c0 -8 -10 -16 -22 -18 -18 -3 -23 2 -23
18 0 16 5 21 23 18 12 -2 22 -10 22 -18z m105 -5 c0 -18 -5 -25 -19 -25 -11 0
-23 5 -26 10 -11 18 3 40 25 40 15 0 20 -7 20 -25z m80 -3 c-1 -18 -20 -34
-34 -29 -16 6 -22 38 -10 50 8 7 44 -10 44 -21z m-320 -2 c0 -11 -7 -20 -15
-20 -8 0 -15 9 -15 20 0 11 7 20 15 20 8 0 15 -9 15 -20z m373 -2 c2 -7 0 -22
-6 -33 -10 -19 -10 -19 -18 0 -12 31 -10 45 5 45 8 0 16 -6 19 -12z m57 -51
c0 -18 -2 -19 -10 -7 -13 20 -13 43 0 35 6 -3 10 -16 10 -28z m-566 -19 c-3
-46 -28 -87 -64 -105 -48 -24 -47 16 2 66 16 17 31 36 32 43 1 7 5 19 9 26 15
24 24 12 21 -30z m266 3 c0 -19 -23 -35 -34 -24 -14 15 -5 43 14 43 13 0 20
-7 20 -19z m-133 -28 c-3 -2 -13 -3 -23 -1 -16 3 -16 4 2 22 18 18 19 18 22 2
2 -10 1 -20 -1 -23z m63 17 c0 -11 -7 -20 -15 -20 -15 0 -21 21 -8 33 12 13
23 7 23 -13z m175 10 c3 -5 4 -14 1 -19 -9 -13 -46 -1 -46 15 0 16 36 19 45 4z
m75 -16 c0 -33 -33 -30 -38 4 -3 17 2 22 17 22 16 0 21 -6 21 -26z m60 -9 c0
-26 -14 -33 -25 -15 -9 14 1 40 15 40 5 0 10 -11 10 -25z m60 -25 c0 -16 -4
-30 -10 -30 -11 0 -14 43 -3 53 11 12 13 8 13 -23z m-202 -19 c-2 -9 -11 -17
-21 -19 -21 -4 -35 27 -17 38 19 12 42 0 38 -19z m-238 12 c0 -5 -4 -14 -9
-21 -7 -11 -9 -11 -14 1 -3 8 -3 18 0 21 9 8 23 7 23 -1z m70 -3 c0 -12 -28
-25 -36 -17 -9 9 6 27 22 27 8 0 14 -5 14 -10z m60 -5 c0 -8 -7 -15 -15 -15
-8 0 -15 7 -15 15 0 8 7 15 15 15 8 0 15 -7 15 -15z m183 -1 c11 -11 -5 -34
-24 -34 -12 0 -19 7 -19 20 0 19 28 28 43 14z m75 -27 c3 -12 -3 -17 -22 -17
-28 0 -29 1 -20 25 8 20 38 15 42 -8z m82 3 c0 -5 -2 -10 -4 -10 -3 0 -8 5
-11 10 -3 6 -1 10 4 10 6 0 11 -4 11 -10z m-43 -22 c-3 -8 -6 -5 -6 6 -1 11 2
17 5 13 3 -3 4 -12 1 -19z m-377 -13 c0 -8 -7 -15 -15 -15 -8 0 -15 7 -15 15
0 8 7 15 15 15 8 0 15 -7 15 -15z m74 0 c-4 -8 -12 -15 -20 -15 -8 0 -14 7
-14 15 0 8 9 15 20 15 13 0 18 -5 14 -15z m109 0 c4 -8 2 -17 -4 -21 -15 -9
-39 3 -39 21 0 19 36 20 43 0z m-456 -25 c11 -21 10 -27 -4 -37 -45 -34 -97 3
-67 46 20 28 54 24 71 -9z m523 10 c0 -23 -10 -26 -28 -8 -18 18 -15 28 8 28
13 0 20 -7 20 -20z m157 -2 c-3 -8 -6 -5 -6 6 -1 11 2 17 5 13 3 -3 4 -12 1
-19z m-92 -13 c0 -10 -5 -20 -11 -22 -13 -4 -27 24 -18 38 9 15 29 4 29 -16z
m85 -25 c0 -11 -4 -20 -10 -20 -5 0 -10 9 -10 20 0 11 5 20 10 20 6 0 10 -9
10 -20z m-390 -27 c0 -7 -7 -13 -15 -13 -8 0 -15 6 -15 13 0 8 7 14 15 14 8 0
15 -6 15 -14z m70 2 c0 -8 -7 -15 -15 -15 -8 0 -15 7 -15 15 0 8 7 15 15 15 8
0 15 -7 15 -15z m187 -18 c-2 -7 -11 -13 -20 -15 -12 -3 -17 4 -17 23 0 23 2
25 21 15 11 -6 18 -17 16 -23z m-77 3 c0 -22 -7 -25 -29 -11 -16 10 -6 31 15
31 8 0 14 -9 14 -20z m130 -16 c0 -8 -4 -14 -10 -14 -5 0 -10 9 -10 21 0 11 5
17 10 14 6 -3 10 -13 10 -21z m70 -30 c0 -28 -15 -25 -23 6 -3 13 0 20 9 20 8
0 14 -10 14 -26z m-320 1 c0 -8 -9 -15 -20 -15 -20 0 -26 11 -13 23 12 13 33
7 33 -8z m110 -10 c0 -8 -6 -15 -14 -15 -17 0 -28 14 -19 24 12 12 33 6 33 -9z
m80 -6 c0 -10 -4 -20 -8 -23 -13 -8 -35 11 -29 26 7 21 37 18 37 -3z m166 -27
c-12 -11 -18 7 -10 30 l8 23 4 -23 c2 -13 1 -26 -2 -30z m-586 18 c0 -25 -32
-27 -51 -3 -8 9 -9 14 -4 11 6 -4 17 -3 25 3 23 14 30 11 30 -11z m490 -11 c0
-10 -6 -19 -14 -19 -19 0 -28 14 -20 33 8 21 34 10 34 -14z m-275 -19 c-3 -5
-11 -10 -16 -10 -6 0 -7 5 -4 10 3 6 11 10 16 10 6 0 7 -4 4 -10z m115 -10 c0
-21 -24 -28 -35 -10 -8 14 3 30 21 30 8 0 14 -9 14 -20z m217 -2 c-3 -8 -6 -5
-6 6 -1 11 2 17 5 13 3 -3 4 -12 1 -19z m-147 -18 c0 -22 -7 -25 -29 -11 -16
10 -6 31 15 31 8 0 14 -9 14 -20z m177 -2 c-3 -8 -6 -5 -6 6 -1 11 2 17 5 13
3 -3 4 -12 1 -19z m-103 4 c2 -4 1 -14 -4 -21 -11 -19 -41 -6 -34 14 6 16 29
20 38 7z m-485 -59 c-16 -18 -38 -16 -46 3 -4 11 1 22 13 31 16 12 20 11 31
-3 9 -13 10 -21 2 -31z m571 16 c0 -20 -15 -26 -25 -9 -9 15 3 43 15 35 5 -3
10 -15 10 -26z m-240 -24 c0 -8 -9 -15 -20 -15 -11 0 -20 7 -20 15 0 8 9 15
20 15 11 0 20 -7 20 -15z m-150 -5 c0 -5 -7 -10 -15 -10 -8 0 -15 5 -15 10 0
6 7 10 15 10 8 0 15 -4 15 -10z m228 -8 c3 -9 -2 -13 -14 -10 -9 1 -19 9 -22
16 -3 9 2 13 14 10 9 -1 19 -9 22 -16z m70 -16 c3 -12 -1 -17 -10 -14 -7 3
-15 13 -16 22 -3 12 1 17 10 14 7 -3 15 -13 16 -22z m72 -33 c0 -20 -3 -24
-11 -16 -7 7 -9 19 -6 27 10 24 17 19 17 -11z m-220 1 c0 -8 -5 -12 -10 -9 -6
4 -8 11 -5 16 9 14 15 11 15 -7z m80 -7 c0 -19 -10 -27 -26 -20 -21 8 -17 33
6 33 11 0 20 -6 20 -13z m70 -22 c0 -22 -3 -24 -20 -15 -21 11 -17 40 6 40 8
0 14 -10 14 -25z m97 -7 c-3 -7 -5 -2 -5 12 0 14 2 19 5 13 2 -7 2 -19 0 -25z
m-900 -12 c-4 -9 -11 -16 -17 -16 -11 0 -14 33 -3 43 11 11 26 -10 20 -27z
m138 14 c4 -6 -1 -22 -10 -36 -11 -16 -14 -35 -10 -57 5 -24 2 -37 -9 -46 -9
-8 -16 -29 -16 -49 0 -62 -56 -97 -81 -51 -9 18 -7 27 12 52 12 17 24 44 26
61 1 16 14 41 27 55 13 15 21 32 19 39 -12 31 26 59 42 32z m163 -13 c4 -18
-23 -57 -38 -57 -14 0 -21 52 -9 66 16 19 43 14 47 -9z m126 -9 c8 -13 6 -22
-8 -37 -22 -24 -17 -56 8 -56 29 0 44 30 27 57 -12 19 -11 23 5 35 23 16 29
16 43 -1 9 -10 9 -20 -1 -40 -10 -22 -9 -32 5 -55 15 -25 15 -30 1 -50 -10
-14 -14 -32 -10 -47 4 -13 2 -33 -4 -44 -12 -22 -56 -27 -63 -7 -4 9 -8 9 -23
-1 -34 -22 -47 -25 -63 -15 -22 14 -26 58 -7 85 9 13 13 31 10 45 -4 15 0 31
11 43 13 14 16 28 11 51 -10 52 31 79 58 37z m446 -10 c0 -19 -2 -20 -10 -8
-13 19 -13 30 0 30 6 0 10 -10 10 -22z m-152 -11 c2 -10 -3 -17 -12 -17 -18 0
-29 16 -21 31 9 14 29 6 33 -14z m70 -20 c2 -12 -1 -15 -12 -11 -19 7 -22 38
-3 32 6 -3 13 -12 15 -21z m-821 -15 c1 -30 -12 -52 -33 -52 -22 0 -17 37 8
60 12 11 22 20 22 20 1 0 2 -12 3 -28z m-97 -12 c0 -11 -5 -20 -10 -20 -19 0
-34 -48 -21 -64 10 -12 8 -18 -13 -31 -51 -34 -85 9 -43 53 14 15 30 39 36 55
13 33 51 38 51 7z m998 3 c-4 -22 -22 -20 -26 1 -2 10 3 16 13 16 10 0 15 -7
13 -17z m-598 -18 c10 -12 10 -18 0 -30 -16 -20 -36 -19 -44 1 -6 16 9 44 24
44 4 0 13 -7 20 -15z m617 -27 c-3 -7 -5 -2 -5 12 0 14 2 19 5 13 2 -7 2 -19
0 -25z m-167 7 c0 -8 -4 -15 -9 -15 -5 0 -11 7 -15 15 -3 9 0 15 9 15 8 0 15
-7 15 -15z m-150 -25 c0 -21 -24 -28 -35 -10 -8 14 3 30 21 30 8 0 14 -9 14
-20z m218 -4 c3 -12 -1 -17 -10 -14 -7 3 -15 13 -16 22 -3 12 1 17 10 14 7 -3
15 -13 16 -22z m-863 -37 c0 -17 -6 -25 -23 -27 -30 -5 -42 26 -17 45 26 18
40 12 40 -18z m935 -1 c0 -5 -4 -8 -10 -8 -5 0 -10 10 -10 23 0 18 2 19 10 7
5 -8 10 -18 10 -22z m-606 -14 c8 -22 -12 -56 -32 -52 -21 4 -28 34 -12 53 16
20 36 19 44 -1z m526 -11 c0 -20 -24 -11 -28 10 -2 12 1 15 12 11 9 -3 16 -13
16 -21z m-66 -19 c4 -9 4 -19 2 -21 -8 -8 -26 8 -26 23 0 19 16 18 24 -2z
m130 -9 c-4 -8 -8 -15 -10 -15 -2 0 -4 7 -4 15 0 8 4 15 10 15 5 0 7 -7 4 -15z
m-54 -36 c0 -5 -4 -9 -10 -9 -5 0 -10 7 -10 16 0 8 5 12 10 9 6 -3 10 -10 10
-16z m73 6 c-3 -9 -8 -14 -10 -11 -3 3 -2 9 2 15 9 16 15 13 8 -4z m-1213 -14
c0 -6 -4 -13 -10 -16 -5 -3 -10 1 -10 9 0 9 5 16 10 16 6 0 10 -4 10 -9z
m1200 -22 c0 -5 -4 -9 -10 -9 -5 0 -10 7 -10 16 0 8 5 12 10 9 6 -3 10 -10 10
-16z m-100 -17 c0 -15 -2 -15 -10 -2 -13 20 -13 33 0 25 6 -3 10 -14 10 -23z"/>
<path d="M3033 3573 c-15 -5 -17 -23 -4 -23 5 0 11 7 15 15 3 8 4 15 3 14 -1
0 -8 -3 -14 -6z"/>
<path d="M2797 3500 c-7 -27 -1 -39 12 -24 5 5 5 18 2 28 -7 18 -8 18 -14 -4z"/>
<path d="M2591 3221 c-9 -6 -10 -11 -3 -15 6 -4 9 -13 6 -20 -3 -8 0 -17 6
-21 7 -4 10 5 8 29 -1 20 -2 36 -3 36 0 0 -6 -4 -14 -9z"/>
<path d="M2990 2810 c0 -6 -12 -9 -27 -8 -23 3 -31 -3 -45 -32 -9 -19 -23 -75
-32 -125 -14 -85 -14 -91 4 -121 26 -41 25 -48 -7 -63 -15 -7 -33 -21 -41 -32
-10 -15 -23 -19 -46 -17 -22 2 -31 -1 -31 -12 0 -10 10 -15 30 -15 17 -1 38
-4 47 -9 9 -4 26 -3 37 4 12 6 21 7 21 2 0 -6 9 -12 20 -15 28 -7 70 29 70 59
0 31 -25 81 -55 112 -29 29 -39 62 -18 62 12 0 14 9 8 48 -6 49 7 75 39 78 6
0 16 2 21 3 10 1 20 91 10 91 -3 0 -5 -5 -5 -10z"/>
<path d="M3191 2606 c-8 -10 -23 -15 -33 -13 -23 6 -23 -1 1 -37 l19 -29 17
32 c9 18 15 39 13 48 -3 14 -5 14 -17 -1z"/>
<path d="M3480 2490 c0 -5 5 -10 10 -10 6 0 10 5 10 10 0 6 -4 10 -10 10 -5 0
-10 -4 -10 -10z"/>
<path d="M3106 2433 c-6 -14 -5 -15 5 -6 7 7 10 15 7 18 -3 3 -9 -2 -12 -12z"/>
<path d="M3061 2382 c-30 -42 -26 -50 5 -12 15 17 24 33 21 36 -2 3 -14 -8
-26 -24z"/>
<path d="M3340 2343 c-14 -3 -29 -9 -35 -15 -11 -11 40 -1 65 13 16 9 11 9
-30 2z"/>
<path d="M2861 2267 c-7 -7 -41 -14 -81 -16 -16 -1 -65 -69 -57 -78 3 -2 14 0
25 6 12 6 23 11 26 11 12 0 6 -28 -6 -33 -10 -4 -10 -6 0 -6 7 -1 10 -6 6 -12
-5 -8 18 -10 80 -8 73 3 86 2 86 -12 0 -8 6 -24 14 -34 13 -19 14 -18 10 5 -3
14 4 58 15 98 10 40 17 71 14 68 -3 -2 -17 0 -32 6 -33 13 -89 16 -100 5z m59
-79 c0 -4 -10 -6 -22 -4 -13 2 -28 0 -34 -5 -13 -10 -74 0 -74 12 0 4 17 11
38 14 20 4 42 8 47 9 12 3 45 -16 45 -26z m-103 -34 c-3 -3 -12 -4 -19 -1 -8
3 -5 6 6 6 11 1 17 -2 13 -5z"/>
<path d="M2641 2071 c-1 -27 2 -32 11 -23 8 8 8 17 0 34 -10 22 -11 21 -11
-11z"/>
<path d="M3131 1134 c0 -11 3 -14 6 -6 3 7 2 16 -1 19 -3 4 -6 -2 -5 -13z"/>
<path d="M2787 223 c-22 -21 2 -56 31 -46 20 7 15 53 -6 53 -10 0 -22 -3 -25
-7z"/>
<path d="M486 2911 c-18 -12 -45 -19 -74 -18 -36 0 -49 -4 -60 -21 -26 -40
-61 -72 -67 -62 -11 17 -45 -13 -51 -46 -3 -18 -1 -42 6 -54 6 -12 14 -63 16
-113 6 -112 24 -155 76 -179 61 -29 128 -99 128 -135 0 -18 16 -54 40 -92 37
-57 43 -62 73 -59 29 3 33 7 40 43 5 22 20 64 34 93 21 43 25 62 20 102 -5 44
-13 64 -54 134 -19 31 -6 132 24 185 28 53 22 79 -37 151 -20 25 -42 55 -49
68 -14 27 -27 28 -65 3z"/>
<path d="M1277 2659 c-44 -27 -55 -29 -174 -32 l-126 -4 -30 -33 -30 -33 54
-24 c46 -21 59 -23 90 -14 20 6 44 11 53 11 9 0 34 11 55 24 24 16 47 23 60
19 16 -4 31 3 51 22 16 15 39 33 52 39 13 6 24 22 26 34 5 30 -21 28 -81 -9z"/>
<path d="M266 2313 c-5 -39 -3 -50 14 -65 11 -10 20 -27 20 -38 0 -26 46 -60
81 -60 45 0 36 43 -21 105 -15 17 -31 41 -35 55 -19 65 -50 66 -59 3z"/>
<path d="M185 2171 c-3 -5 -1 -12 5 -16 5 -3 10 1 10 9 0 18 -6 21 -15 7z"/>
<path d="M0 832 c0 -50 3 -62 18 -67 25 -7 125 -82 135 -100 4 -9 23 -22 42
-29 46 -19 55 -64 27 -132 -11 -27 -24 -62 -29 -79 -5 -16 -19 -34 -32 -40
-19 -9 -21 -15 -16 -45 8 -45 16 -53 49 -44 22 5 26 11 26 45 0 21 6 53 14 71
8 18 18 46 21 62 3 16 19 40 36 55 20 18 29 35 29 56 0 17 5 36 12 43 18 18
62 14 91 -8 14 -11 30 -20 37 -20 15 0 -31 59 -47 59 -7 1 -13 5 -13 9 0 4
-39 21 -87 37 -85 27 -163 61 -173 74 -3 4 -18 15 -33 25 -16 9 -46 33 -68 53
l-39 35 0 -60z"/>
<path d="M1140 660 c0 -5 4 -10 9 -10 6 0 13 5 16 10 3 6 -1 10 -9 10 -9 0
-16 -4 -16 -10z"/>
<path d="M520 561 c0 -21 13 -41 26 -41 17 0 18 22 2 38 -14 14 -28 16 -28 3z"/>
<path d="M375 501 c-8 -15 3 -31 21 -31 9 0 14 7 12 17 -4 20 -24 28 -33 14z"/>
<path d="M0 485 c0 -8 4 -15 10 -15 5 0 7 7 4 15 -4 8 -8 15 -10 15 -2 0 -4
-7 -4 -15z"/>
<path d="M649 444 c-13 -15 -34 -37 -46 -51 -15 -16 -23 -36 -23 -61 0 -25 -7
-43 -20 -55 -11 -9 -20 -28 -20 -41 0 -16 -7 -27 -20 -31 -11 -3 -23 -18 -26
-33 -10 -49 -13 -52 -45 -52 l-32 0 7 -46 c5 -40 3 -47 -14 -51 -29 -8 -25
-23 6 -23 14 0 23 4 20 9 -7 11 17 21 48 21 32 0 35 7 24 48 -9 33 -8 38 21
61 22 19 29 32 25 47 -4 15 1 23 21 32 17 8 28 23 32 43 4 23 14 35 35 43 21
8 28 17 28 38 0 15 7 43 16 62 16 33 14 66 -5 66 -5 0 -19 -12 -32 -26z"/>
<path d="M845 460 c3 -5 8 -10 11 -10 2 0 4 5 4 10 0 6 -5 10 -11 10 -5 0 -7
-4 -4 -10z"/>
<path d="M60 441 c0 -21 13 -41 26 -41 19 0 18 36 -2 44 -21 8 -24 8 -24 -3z"/>
<path d="M470 432 c0 -4 5 -13 12 -20 18 -18 28 -15 28 8 0 13 -7 20 -20 20
-11 0 -20 -4 -20 -8z"/>
<path d="M128 282 c-27 -5 -25 -62 2 -62 11 0 23 7 27 16 8 22 -9 51 -29 46z"/>
<path d="M734 275 c3 -9 6 -19 6 -21 0 -2 9 -4 21 -4 29 0 21 34 -10 38 -19 3
-22 0 -17 -13z"/>
<path d="M1408 275 c-7 -7 2 -54 11 -59 14 -9 54 31 48 48 -6 15 -47 23 -59
11z"/>
<path d="M262 254 c3 -19 34 -41 43 -32 4 3 2 16 -5 27 -13 25 -43 28 -38 5z"/>
<path d="M837 214 c-11 -11 13 -34 35 -34 13 0 18 6 16 18 -3 17 -38 29 -51
16z"/>
<path d="M73 202 c-6 -4 -13 -21 -15 -37 -2 -24 -8 -31 -30 -33 -27 -3 -28 -5
-28 -68 0 -36 4 -64 10 -64 6 0 10 7 10 15 0 21 56 20 68 -1 6 -10 18 -14 38
-11 l29 4 -32 13 c-50 22 -74 112 -33 123 15 4 20 14 20 36 0 31 -13 39 -37
23z"/>
<path d="M340 182 c0 -19 18 -42 32 -42 12 0 9 35 -4 48 -17 17 -28 15 -28 -6z"/>
<path d="M1128 82 c-29 -3 -32 -9 -22 -36 7 -17 50 -21 72 -8 14 10 7 39 -11
44 -7 2 -24 2 -39 0z"/>
<path d="M1227 33 c-20 -19 -5 -33 38 -33 46 0 54 7 33 28 -13 13 -60 16 -71
5z"/>
<path d="M550 9 c0 -5 11 -9 25 -9 14 0 25 2 25 4 0 2 -11 6 -25 8 -14 3 -25
1 -25 -3z"/>
<path d="M1610 10 c0 -5 5 -10 10 -10 6 0 10 5 10 10 0 6 -4 10 -10 10 -5 0
-10 -4 -10 -10z"/>
</g>
</svg>
