<?xml version="1.0" standalone="yes"?>
<svg width="509" height="317">
<path style="fill:#000000; stroke:none;" d="M0 0L0 317L175 317L175 316C151.508 313.949 130.064 290.736 127 268C145.252 272.223 159.688 274.183 178 268.255C200.187 261.072 221.174 244.026 245 243L245 244C217.364 257.132 201.5 280.908 168 281C190.147 308.38 224.545 289.146 241.572 267C247.16 259.732 249.785 249.405 256 243C261.528 275.103 315.002 317.141 341 281C324.443 280.863 308.488 275.014 295 265.562C285.052 258.591 275.433 248.335 264 244L264 243C289.196 243.52 311.371 262.266 335 269.279C352.661 274.521 365.659 270.561 383 268C377.01 291.092 359.739 313.895 334 316L334 317L509 317L509 235L508 235C497.729 267.232 451.485 277.93 422 275.91C411.487 275.191 401.397 271.849 391 271L391 269C416.098 268.983 444.455 264.025 467 252.752C472.111 250.196 487.874 243.078 486.94 235.999C485.821 227.52 472.208 224.28 467 219C482.77 219.326 495.459 226.868 509 234L509 0L0 0z"/>
<path style="fill:#1c1d1a; stroke:none;" d="M202 189C208.381 202.489 222.229 223.578 236 230C230.648 217.992 220.35 208.414 214.862 196C198.477 158.936 201.048 115.042 226.804 83C232.869 75.4551 239.205 67.8871 246.015 61.0039C248.311 58.6828 251.402 54.8673 255 54.8673C258.586 54.8673 261.694 58.667 263.961 61.0039C270.952 68.2129 277.578 76.1109 283.789 84C310.185 117.525 310.566 163.368 292.68 201C287.602 211.683 277.832 219.637 273 230C285.952 225.597 296.379 206.932 303.667 196C333.269 151.596 336.188 102.918 301.8 60C292.404 48.2727 281.214 38.1561 269 29.4275C265.102 26.6422 259.163 21.1134 254 21.8627C247.747 22.7701 240.879 29.4412 236 33.1296C220.468 44.8702 206.837 59.2709 196.8 76C187.502 91.4976 182.001 108.867 182 127C181.999 150.622 191.281 168.184 201 189C167.902 163.782 150.001 115.734 159.014 75C161.71 62.8169 167.734 51.595 175.616 42C178.111 38.9619 181.596 34.0243 186 34.071C194.811 34.1645 202.515 44.5716 210 48C208.532 34.0228 200.298 21.1991 190.972 11C188.654 8.46487 184.109 0.58728 180 1.83334C170.622 4.677 160.63 22.0451 155.806 30C134.141 65.721 132.813 111.872 154.389 148C162.698 161.912 173.952 174.286 187 183.861C190.888 186.714 198.352 194.429 202 189M300 48C307.43 44.5554 315.096 34.005 324 34.1512C332.858 34.2967 341.971 52.092 345.218 59C359.743 89.9005 352.56 125.943 337.219 155C332.855 163.267 327.425 171.23 320.961 178C316.83 182.325 310.721 186.132 309 192C320.242 188.418 329.883 178.155 337.999 170C370.923 136.919 381.038 84.3226 360.244 42C354.742 30.8025 348.209 20.3102 339.829 11C337.365 8.26172 333.748 3.28012 330 2.34567C325.539 1.23361 321.006 8.13696 318.59 11C309.802 21.4143 300.616 33.8694 300 48M167 176L167 175C129.321 149.581 84.4266 122.526 84 71C101.64 71.7574 116.684 80.4462 133 86C125.407 69.718 101.256 60.9821 86 53.7809C82.1238 51.9512 70.6218 44.3272 67.3179 49.3217C61.7183 57.7866 66.8506 79.6648 68.6111 89C77.2727 134.927 119.998 171.902 167 176M376 86C392.473 80.4273 408.205 71.3673 426 71C423.453 103.273 406.448 129.708 381 149.116C369.462 157.915 352.169 164.933 343 176C389.975 169.669 433.359 135.805 441.246 88C442.852 78.2667 443 68.8402 443 59C443 56.1531 443.937 50.9826 441.972 48.6188C438.745 44.7356 427.469 52.0664 424 53.5756C408.8 60.1884 383.404 70.1334 376 86M44 95C42.0286 101.234 42 107.515 42 114C42 120.573 42.1729 126.678 44.2168 133C54.4046 164.512 92.1385 163.88 119 166C114.659 157.944 103.551 151.551 97 145C80.3881 128.389 64.0281 107.528 44 95M465 95L416 142L391 165C425.132 165 467.931 159.208 468 116C468.011 109.43 468.843 100.618 465 95M28 140C28 198.817 64.2407 255.992 126 262.95C138.302 264.336 150.686 264.484 163 263.166C167.118 262.725 173.155 263.272 176 260C129.009 268.335 72.1373 232.603 59 187C72.3659 196.516 90.1139 199.749 106 202.414C134.463 207.189 164.559 208.125 192 217.695C201.64 221.057 211.002 225.38 218.999 231.808C223.901 235.748 227.131 241.812 234 240C215.512 200.918 173.177 178.391 132 172.428C106.05 168.671 78.5695 170.165 54 159.572C43.2664 154.944 36.7883 147.086 28 140M481 140C452.137 170.074 415.287 166.884 377 172.428C346.317 176.871 317.805 189.669 296.015 212C288.433 219.77 279.884 229.753 276 240C282.842 241.838 286.104 235.377 291 231.518C299.077 225.152 308.314 220.925 318 217.667C359.87 203.587 413.253 211.873 451 187C429.983 237.481 386.517 260 334 260L334 262C348.043 262.29 361.846 265.178 376 263.83C423.391 259.317 458.992 231.424 473.999 186C477.791 174.522 485.894 151.668 481 140M1 233C3.50791 247.06 16.9382 258.108 29 264.244C59.0753 279.543 87.1904 275.283 119 271L119 269C94.075 268.983 66.5842 263.801 44 253.111C38.6237 250.566 23.2426 243.123 23.6929 236.001C24.1531 228.722 37.346 223.366 43 221C31.5689 213.325 11.2578 228.58 1 233M467 219C470.773 224.778 487.249 228.463 486.23 236.996C485.419 243.787 471.377 250.063 466 252.752C443.79 263.858 415.745 268.932 391 269L391 271C421.012 275.041 449.342 280.024 478 265.73C486.829 261.326 509.639 247.369 507.864 235.105C507.338 231.466 501.819 229.405 499 227.864C489.177 222.497 478.222 219.093 467 219M127 268C131.209 319.527 194.213 327.105 228 300.482C236.27 293.966 242.931 285.397 247.63 276C250.525 270.21 251.7 262.873 256 258C261.487 312.743 341.252 338.022 373.56 292C378.701 284.677 381.314 276.691 383 268C365.861 269.496 353.555 274.49 336 269.279C312.014 262.16 289.643 243.212 264 243L264 244C290.432 258.73 308.316 280.91 341 281C309.719 311.632 265.713 278.513 256 243C249.396 247.505 245.947 260.422 240.789 267C220.962 292.284 194.025 303.664 168 281C199.916 280.979 220.163 260.895 245 244C231.823 238.626 208.676 254.935 197 260.139C183.359 266.218 168.259 272.921 153 272.921C144.003 272.921 135.725 269.289 127 268z"/>
<path style="fill:#000000; stroke:none;" d="M254 258C247.383 285.925 221.746 313.403 192 316L192 317L319 317L319 316C289.763 314.664 260.85 286.183 256 258L254 258z"/>
</svg>
